<?xml version="1.0" encoding="utf-8"?>
<!-- Generator: Adobe Illustrator 22.0.1, SVG Export Plug-In . SVG Version: 6.00 Build 0)  -->
<svg version="1.1" id="Capa_1" xmlns="http://www.w3.org/2000/svg" xmlns:xlink="http://www.w3.org/1999/xlink" x="0px" y="0px"
	 viewBox="0 0 160.6 64.6" style="enable-background:new 0 0 160.6 64.6;" xml:space="preserve">
<style type="text/css">
	.st0{fill:#000;}
</style>
<g>
	<g>
		<g>
			<g>
				<g>
					<path class="st0" d="M145.4,21.4c-0.5-0.5-0.8-1-0.8-1s0-0.2-0.2-0.2c-0.2,0-1-1.7-1.2-1.8c-0.2-0.1-0.7-0.9-0.8-0.9
						c-0.1,0-0.3-0.5-0.6-0.6l-0.8-1.2c0,0-0.4,0.3,0,1l-0.6,0c0,0-0.6,0.1-0.7,0.2c-0.1,0-1.3,0.1-1.3,0.2c-0.1,0-1.1-0.5-1.4-0.3
						c-0.3,0.1-0.5,0.3-0.7,0.3c-0.1,0,0.5,0.4,0.5,0.4l-0.4,0.1c0,0-0.9-0.3-1.1-0.3c-0.2,0-0.8,0.4-0.9,0.4
						c-0.1,0-0.8,0.4-0.9,0.5c-0.1,0.1-0.8-0.2-0.8-0.2s-0.4-1.9-0.2-1.9c0.2,0,0.9,0.5,1.1,0.5c0.2,0,1.9-0.5,2.1-0.6
						c0.2-0.1-1,0.9-1.6,1.2c-0.1,0.1,0.1,0.2,0.1,0.2s1.9-1.4,2-1.4c0.2,0,0.3-0.1,0.3-0.1s0.2,0,0.2-0.2c0-0.1,0.2-0.3,0.3-0.3
						c0.1,0,0.4-0.3,0.3-0.3c-0.1,0-1.1,0-1.5,0.3c0,0-1,0.1-1.1,0.1c-0.1,0,0.2-0.2,0.2-0.2s0.2,0,0.2,0c0.1,0,0.1-0.4,0.1-0.4
						l0.1-0.2l0.4-0.1c0,0-0.1-0.3-0.2-0.4c-0.1-0.2,0-1-0.8-1.2c0,0-0.1-0.4-0.5-0.1c0,0-0.6,0-1,0.6c-0.3,0.6-0.3,0.5-0.3,0.5
						s-0.2,0.2-0.4,0c-0.3-0.1-0.3-0.3-0.9-0.2c0,0-0.4,0-0.5,0c-0.1,0-0.8-0.1-1.3,0.2c0,0-0.4,0.1-0.5,0.2c-0.1,0.1-0.4,0-0.4,0.1
						c-0.1,0.1-0.3,0.3-0.5,0.3c-0.2,0-0.5-0.1-0.6,0c-0.1,0.1-0.3,0.3-0.3,0.5c0,0.2-0.2,0.4-0.3,0.4c-0.1,0-1.2,1.2,0.1,2
						c0,0,0.7,0.7,0.8,0.7c0.1,0,1.3,1,1.6,1c0,0,0.3,0.3,0.1,0.4c-0.1,0.2-1,0.6-2.5,0.3c0,0-0.7-0.1-0.6,0.3c0,0-1,0.2-1.6,0
						c-0.6-0.2-2.9-0.4-4.7,0.3c0,0-1.5,0-1.9,0.2c-0.4,0.2-1.1,0-1.3,0c-0.1,0-0.8,0.1-1.1,0.2c-0.3,0.1-0.9,0.5-1.5,0.7
						c-0.6,0.2-2.2,0.9-2.4,0.9c-0.2-0.1-2.3,0.4-2.3,1c0,0.6-0.2-0.2,1.2-0.2c1.3,0,0.5,0.1,0.5,0.1l-0.4,0.1c0,0,1.1,0.1,1.3,0
						c0.2,0,0.7-0.3,0.8-0.3c0.1,0,1-0.4,1.1-0.5c0.2-0.1,0.4,0.1,0.8-0.1c0.4-0.2,0.7-0.6,1-0.6c0.3,0,0.6,0.2,1.1-0.2
						c0.5-0.4,0.6-0.1,0.9-0.3c0.3-0.2,0.8-0.3,0.8-0.3c0,0-1,1.3-1.4,4c0,0-0.4,0.6-1.1,0.9c-0.7,0.3-1.2,0.6-1.3,0.6
						c-0.1,0-0.7,0.3-0.9,0.8c-0.2,0.5-1,1.2-1,1.2s-0.7,0.7-0.8,0.7c-0.1,0-0.7,0.3-0.8,0.7c0,0-0.9,0.6-1.5,0.2
						c0,0-0.5-0.1-0.7,0.5c-0.2,0.6-0.6,1.1-0.1,1.1c0,0,1-0.3,1.4-0.5c0.4-0.3,1.2-0.5,1.2-0.5s0.5,0.2,1.2-0.9
						c0.8-1.1,2.1-1.9,2.1-1.9s1.2-0.8,1.4-0.8c0.2,0,1-0.2,2-0.7c0,0,0,1-1.1,1.6c0,0-1,0.6-1.1,0.9c-0.1,0.3-0.6,1.1-0.7,1.4
						c-0.1,0.2-0.6,1.3-1.1,1.5c-0.5,0.2-0.3,0.9-0.3,0.9s-0.1,0.3-0.4,0.3c-0.3,0-0.8,0.2-0.7,1.1c0,0,1.3,0.1,1.3,0
						c0-0.1-0.2,0,0.6-1.3c0.8-1.3,1.6-2.1,1.6-2.1s0.6-0.6,1.8-1.4c1.3-0.8,1.9-1.5,1.9-1.5s1.7-1.1,2.1-1.4c0.3-0.3,1-1,1.7-1
						c0.7,0,1.5,0.6,2.5,0.8c1,0.3,2.9,0.7,5.8,0.1c0,0,0.3,0,0.3,0.2c0.1,0.2,0.1,0.8,0.3,1.1c0.1,0.2-0.1,1.1-0.1,1.2
						c0,0.1-0.1,1,0.2,1.3c0,0-0.1,2.3-0.1,2.7c0,0.4-0.4,0.8,0.4,1.3c0,0,0,0.3,0.7,0.4c0.5,0.1,0.7-0.1,0.7-0.1s0.1-0.8-0.2-0.8
						c-0.3,0-0.6,0-0.8-0.5c-0.2-0.5,0-1.5,0-1.5s0.2-1.4,0.2-1.5c0-0.1,0.2-1,0.2-1.3c0.1-0.3,0-1,0.3-1.3c0.3-0.3,0.5-1.4,0.4-1.5
						c-0.1-0.1,1.7,0.5,1.7,0.5s1.5,0.7,1.6,0.8c0.1,0.1,1.9,1,2.4,1l0.8,0.5c0,0,0.8,0.4,0.9,0.6c0.1,0.3,0.5,0,0.5,0
						s0.4-0.1,0.5,0c0.1,0.1,0,0.6,0.3,0.9c0.3,0.2,1.5-0.2,1.5-0.5c0-0.3-1.1-0.7-1.1-0.7s-0.8,0-1.1-0.3c-0.3-0.3-0.6-0.3-0.6-0.3
						s-3.1-1.8-3.3-2c-0.3-0.2-1.7-1.7-2-1.8c0,0,0-1-0.1-1.8c-0.1-0.8-0.2-1,0.7-1.5c0.9-0.6,1.8-1.1,2.3-1.1c0.5,0,0.7,0,0.8,0.1
						c0.1,0.1,0.3,0.9,1.4,0.9c0,0,0.5,0.4,0.8,0.4c0.3,0,0.3,0.3,0.5,0.3c0.2,0,0.4,0.2,0.5,0.5c0.1,0.3,0.9,0.2,1.1,0.2
						c0.1,0,0.3,0,0.6-0.6C145.6,22.2,145.9,21.9,145.4,21.4z M132.6,18.8c-0.1,0-1.2,0.3-1.3,0.3c-0.1,0,0-0.4,0-0.6
						c0-0.2-0.3-0.7-0.5-0.8c-0.2-0.1-0.5-0.6-0.5-0.6s-0.7-0.6-0.8-0.7c-0.1-0.1-0.1-0.3-0.1-0.3s0.5,0.2,0.8,0.1
						c0.3-0.1,0.7-0.2,0.9-0.2c0.2,0,0.7-0.1,0.7-0.1l0.3,1c0,0,0.5,1.1,0.6,1.1c0.1,0,0.5,0.2,0.5,0.2S132.7,18.8,132.6,18.8z"/>
				</g>
			</g>
		</g>
		<g>
			<g>
				<g>
					<path class="st0" d="M24.5,34.4l-0.8-2.5h-5l-0.8,2.5H15l5.1-14.1h2.2l5.1,14.1H24.5z M21.3,24.5l-1.8,5.1H23L21.3,24.5z"/>
				</g>
				<g>
					<path class="st0" d="M38.9,34.4l-5.6-8.6v8.6h-2.7V20.3h2.4l5.6,8.6v-8.6h2.7v14.1H38.9z"/>
				</g>
				<g>
					<path class="st0" d="M51.5,22.8v11.6h-2.7V22.8h-3.7v-2.4h10.1v2.4H51.5z"/>
				</g>
				<g>
					<path class="st0" d="M67,32.9c-1,1-2.2,1.5-3.8,1.5c-1.6,0-2.8-0.6-3.8-1.5C58,31.5,58,29.8,58,27.3c0-2.4,0-4.2,1.4-5.6
						c1-1,2.2-1.5,3.8-1.5c1.6,0,2.8,0.6,3.8,1.5c1.4,1.4,1.4,3.2,1.4,5.6C68.4,29.8,68.4,31.5,67,32.9z M65,23.4
						c-0.4-0.5-1-0.8-1.8-0.8c-0.8,0-1.4,0.3-1.8,0.8c-0.5,0.6-0.7,1.2-0.7,4c0,2.7,0.1,3.4,0.7,4c0.4,0.5,1,0.8,1.8,0.8
						c0.8,0,1.4-0.3,1.8-0.8c0.5-0.6,0.7-1.2,0.7-4C65.7,24.6,65.5,24,65,23.4z"/>
				</g>
				<g>
					<path class="st0" d="M81,34.4l-5.6-8.6v8.6h-2.7V20.3h2.4l5.6,8.6v-8.6h2.7v14.1H81z"/>
				</g>
				<g>
					<path class="st0" d="M88.2,34.4V20.3h2.7v14.1H88.2z"/>
				</g>
				<g>
					<path class="st0" d="M104.2,32.9c-1,1-2.2,1.5-3.8,1.5c-1.6,0-2.8-0.6-3.8-1.5c-1.4-1.4-1.4-3.2-1.4-5.6c0-2.4,0-4.2,1.4-5.6
						c1-1,2.2-1.5,3.8-1.5c1.6,0,2.8,0.6,3.8,1.5c1.4,1.4,1.4,3.2,1.4,5.6C105.6,29.8,105.6,31.5,104.2,32.9z M102.2,23.4
						c-0.4-0.5-1-0.8-1.8-0.8c-0.8,0-1.4,0.3-1.8,0.8c-0.5,0.6-0.7,1.2-0.7,4c0,2.7,0.1,3.4,0.7,4c0.4,0.5,1,0.8,1.8,0.8
						c0.7,0,1.4-0.3,1.8-0.8c0.5-0.6,0.7-1.2,0.7-4C102.9,24.6,102.7,24,102.2,23.4z"/>
				</g>
			</g>
		</g>
		<g>
			<g>
				<path class="st0" d="M20.8,52h-5.9V38h5.6c2.7,0,4.3,1.5,4.3,4c0,1.6-1,2.6-1.7,2.9c0.8,0.4,1.9,1.3,1.9,3.2
					C25.1,50.6,23.3,52,20.8,52z M20.3,40.4h-2.7v3.2h2.7c1.2,0,1.8-0.6,1.8-1.6C22.2,41.1,21.5,40.4,20.3,40.4z M20.5,46.1h-2.9
					v3.5h2.9c1.2,0,1.8-0.8,1.8-1.7C22.4,46.9,21.8,46.1,20.5,46.1z"/>
			</g>
			<g>
				<path class="st0" d="M32.9,52.1c-2.9,0-5.2-2-5.2-4.9V38h2.7v9.1c0,1.6,0.9,2.6,2.4,2.6c1.5,0,2.4-1,2.4-2.6V38H38v9.2
					C38,50.2,35.7,52.1,32.9,52.1z"/>
			</g>
			<g>
				<path class="st0" d="M41.1,52V38h2.7v11.6h6.4V52H41.1z"/>
			</g>
			<g>
				<path class="st0" d="M52.4,52V38h2.7v11.6h6.4V52H52.4z"/>
			</g>
			<g>
				<path class="st0" d="M71.3,52l-2.7-5.6h-2V52h-2.7V38h5.5c2.9,0,4.6,2,4.6,4.3c0,2-1.2,3.2-2.6,3.7l3.1,6.1H71.3z M69.1,40.4
					h-2.6v3.7h2.6c1.2,0,2-0.8,2-1.9C71.1,41.2,70.3,40.4,69.1,40.4z"/>
			</g>
			<g>
				<path class="st0" d="M76.7,52V38h2.7V52H76.7z"/>
			</g>
			<g>
				<path class="st0" d="M87.4,52.1c-1.5,0-2.8-0.5-3.8-1.5c-0.6-0.6-1-1.3-1.1-2.1c-0.2-0.8-0.2-2-0.2-3.5c0-1.5,0.1-2.7,0.2-3.5
					c0.2-0.8,0.5-1.5,1.1-2.1c1-1,2.3-1.5,3.8-1.5c2.7,0,4.7,1.6,5.2,4.4h-2.8c-0.3-1.2-1-2-2.4-2c-0.8,0-1.3,0.2-1.8,0.7
					c-0.6,0.6-0.7,1.2-0.7,4c0,2.7,0.1,3.4,0.7,4c0.4,0.5,1,0.7,1.8,0.7c1.3,0,2.1-0.8,2.4-2h2.8C92.1,50.5,90.1,52.1,87.4,52.1z"/>
			</g>
			<g>
				<path class="st0" d="M102.5,52v-5.9h-4.8V52H95V38h2.7v5.7h4.8V38h2.7V52H102.5z"/>
			</g>
			<g>
				<path class="st0" d="M117.2,52.1c-2.1,0-3.6-0.5-5-1.9l1.4-1.4c1,1,2.2,1.3,3.6,1.3c1.8,0,2.9-0.8,2.9-2.1
					c0-0.6-0.2-1.1-0.6-1.5c-0.4-0.3-0.7-0.5-1.5-0.6l-1.7-0.2c-1.1-0.2-2.1-0.6-2.7-1.1c-0.7-0.7-1-1.5-1-2.7
					c0-2.4,1.8-4.1,4.7-4.1c1.9,0,3.2,0.5,4.4,1.6l-1.4,1.3c-0.9-0.8-1.9-1.1-3.1-1.1c-1.7,0-2.6,0.9-2.6,2.2c0,0.5,0.2,1,0.5,1.3
					c0.4,0.3,0.9,0.6,1.6,0.7l1.6,0.2c1.3,0.2,2,0.5,2.6,1c0.8,0.7,1.1,1.7,1.1,2.9C122.2,50.6,120.1,52.1,117.2,52.1z"/>
			</g>
			<g>
				<path class="st0" d="M124.4,52v-2.4h2.4V52H124.4z"/>
			</g>
			<g>
				<path class="st0" d="M137.8,52l-1-2.8h-5.5l-1,2.8h-2.3l5.2-14.1h1.7l5.2,14.1H137.8z M134.2,41.1l-2.2,6.2h4.3L134.2,41.1z"/>
			</g>
			<g>
				<path class="st0" d="M141.4,52v-2.4h2.4V52H141.4z"/>
			</g>
		</g>
	</g>
</g>
</svg>
