<svg width="250" height="72" viewBox="0 0 250 72" fill="none" xmlns="http://www.w3.org/2000/svg">
<path d="M109.96 27.7695C107.601 30.8754 103.959 32.7117 100.102 32.7117C93.2183 32.7117 87.6172 26.9788 87.6172 19.9324C87.6172 12.886 93.2183 7.15308 100.102 7.15308C102.127 7.15308 104.06 7.63631 105.848 8.5852C107.377 9.39791 108.748 10.5489 109.833 11.9283C109.934 12.0601 109.907 12.2534 109.771 12.35L105.637 15.3724C105.51 15.4647 105.334 15.4471 105.229 15.3285C103.933 13.8129 102.092 12.9519 100.102 12.9519C96.3373 12.9519 93.271 16.0841 93.271 19.9324C93.271 23.7807 96.3329 26.9129 100.102 26.9129C102.145 26.9129 104.073 25.9728 105.369 24.3737C105.466 24.2507 105.646 24.2331 105.769 24.3254L109.894 27.3434C110.03 27.4444 110.061 27.6377 109.96 27.7739V27.7695Z" fill="#E52322"/>
<path d="M130.266 22.9767C130.266 28.2878 125.886 32.6106 120.5 32.6106C115.114 32.6106 110.734 28.2878 110.734 22.9767C110.734 17.6655 115.114 13.3428 120.5 13.3428C125.886 13.3428 130.266 17.6655 130.266 22.9767ZM124.757 22.9767C124.757 20.6615 122.846 18.7769 120.5 18.7769C118.154 18.7769 116.243 20.6615 116.243 22.9767C116.243 25.2918 118.154 27.1764 120.5 27.1764C122.846 27.1764 124.757 25.2918 124.757 22.9767Z" fill="#E52322"/>
<path d="M149.319 21.3865V31.7364C149.319 31.899 149.188 32.0308 149.025 32.0308H143.538C143.376 32.0308 143.244 31.899 143.244 31.7364V21.6764C143.244 20.9955 143.204 20.2135 142.919 19.5809C142.787 19.313 142.611 19.0889 142.4 18.9264C142.058 18.6584 141.614 18.5266 141.043 18.5266C139.984 18.5266 139.163 18.8912 138.904 19.4755C138.605 20.1125 138.605 20.9779 138.605 21.6764V31.7364C138.605 31.899 138.473 32.0308 138.311 32.0308H132.824C132.661 32.0308 132.529 31.899 132.529 31.7364V13.9315C132.529 13.769 132.661 13.6372 132.824 13.6372H137.963C138.126 13.6372 138.258 13.769 138.258 13.9315V14.4279C138.258 14.5465 138.39 14.6168 138.486 14.5509C142.629 11.6999 146.662 14.8672 146.706 14.898C146.851 15.0122 146.991 15.1352 147.119 15.2626C148.994 17.1516 149.311 18.676 149.311 21.3909L149.319 21.3865Z" fill="#E52322"/>
<path d="M166.096 26.544C166.052 27.1898 165.886 27.8707 165.604 28.5824C164.502 30.9238 161.963 32.3208 158.8 32.3208C158.365 32.3208 157.912 32.2945 157.464 32.2418C156.041 32.0748 154.798 31.697 153.765 31.1171C152.702 30.3967 151.894 29.3951 151.349 28.1299C151.274 27.9586 151.375 27.7609 151.556 27.7257L156.594 26.6407C156.713 26.6143 156.832 26.667 156.897 26.7637C157.249 27.2908 157.851 27.5456 158.176 27.5852C158.945 27.6774 159.349 27.4709 159.546 27.282C159.748 27.0887 159.841 26.8296 159.806 26.544C159.727 25.907 159.344 25.6083 157.394 24.6814L157.367 24.6682C156.981 24.4837 156.498 24.2552 155.957 23.9873C155.584 23.8247 155.224 23.6534 154.885 23.4689L154.859 23.4513C154.811 23.425 154.762 23.3942 154.714 23.3635C152.966 22.3619 151.946 21.1406 151.683 19.7348C151.309 17.7272 152.601 16.0227 152.86 15.702C153.251 15.2627 153.704 14.8761 154.213 14.5511C155.742 13.5758 157.715 13.1717 159.766 13.4133C160.996 13.5582 162.112 13.8877 163.083 14.3973C163.544 14.6389 163.975 14.9245 164.357 15.2496C164.62 15.4824 165.446 16.2995 165.697 17.5471C165.727 17.7052 165.622 17.859 165.464 17.8898L160.504 18.8914C160.364 18.9177 160.227 18.8386 160.175 18.7069C160.034 18.3598 159.731 18.0128 159.076 17.9381C158.641 17.8854 158.25 18.0172 157.996 18.2939C157.807 18.5048 157.728 18.7684 157.789 18.9792C157.886 19.3087 158.224 19.8315 160.074 20.5871C160.443 20.732 160.776 20.8594 161.119 21C161.55 21.1538 161.967 21.3207 162.358 21.492C163.535 22.0456 166.259 23.6358 166.096 26.5396V26.544Z" fill="#E52322"/>
<path d="M178.968 27.5851L178.309 31.9341C178.287 32.0703 178.173 32.1758 178.037 32.1845C177.409 32.2197 175.722 32.3163 175.208 32.3163C175.168 32.3163 175.133 32.3163 175.107 32.3163C171.983 32.1538 170.332 30.5503 170.332 27.6817V18.8517C170.332 18.6892 170.2 18.5574 170.037 18.5574H168.126C167.964 18.5574 167.832 18.4256 167.832 18.2631V13.9096C167.832 13.747 167.964 13.6152 168.126 13.6152H170.037C170.2 13.6152 170.332 13.4835 170.332 13.3209V8.27334C170.332 8.11079 170.463 7.979 170.626 7.979H175.766C175.928 7.979 176.06 8.11079 176.06 8.27334V13.3209C176.06 13.4835 176.192 13.6152 176.354 13.6152H178.265C178.428 13.6152 178.56 13.747 178.56 13.9096V18.2631C178.56 18.4256 178.428 18.5574 178.265 18.5574H176.354C176.192 18.5574 176.06 18.6892 176.06 18.8517C176.06 20.3805 176.06 24.8921 176.06 24.9361V25.0635C176.038 25.6214 176.012 26.3902 176.46 26.847C176.724 27.115 177.132 27.2512 177.677 27.2512H178.678C178.859 27.2512 178.995 27.4137 178.968 27.5894V27.5851Z" fill="#E52322"/>
<path d="M191.496 13.9447L191.32 18.2455C191.311 18.4124 191.166 18.5398 190.999 18.5266C190.494 18.4783 189.488 18.4124 188.895 18.5574C188.232 18.7155 187.849 19.2251 187.74 19.4755C187.441 20.1125 187.441 20.6748 187.441 21.3865V31.7365C187.441 31.899 187.309 32.0308 187.146 32.0308H181.66C181.497 32.0308 181.365 31.899 181.365 31.7365V13.9315C181.365 13.769 181.497 13.6372 181.66 13.6372H186.799C186.962 13.6372 187.094 13.769 187.094 13.9315V14.4455C187.094 14.5597 187.221 14.63 187.318 14.5685C188.535 13.8085 189.98 13.6548 191.192 13.6372C191.359 13.6372 191.496 13.7734 191.491 13.9447H191.496Z" fill="#E52322"/>
<path d="M210.332 13.9315V31.7408C210.332 31.9034 210.2 32.0352 210.038 32.0352H204.898C204.735 32.0352 204.604 31.9034 204.604 31.7408V31.2444C204.604 31.1258 204.472 31.0555 204.375 31.1214C203.092 32.0044 201.818 32.3119 200.667 32.3119C198.111 32.3119 196.182 30.7963 196.156 30.7744C196.011 30.6602 195.87 30.5372 195.743 30.4098C193.867 28.5208 193.551 26.9964 193.551 24.2815V13.9315C193.551 13.769 193.683 13.6372 193.845 13.6372H199.332C199.495 13.6372 199.626 13.769 199.626 13.9315V23.9959C199.626 24.6769 199.666 25.4588 199.951 26.0914C200.083 26.3594 200.259 26.5834 200.465 26.746C200.808 27.014 201.252 27.1457 201.823 27.1457C202.882 27.1457 203.703 26.7811 203.962 26.1969C204.261 25.5599 204.261 24.69 204.261 23.9959V13.9315C204.261 13.769 204.393 13.6372 204.555 13.6372H210.042C210.205 13.6372 210.337 13.769 210.337 13.9315H210.332Z" fill="#E52322"/>
<path d="M230.424 14.0282L224.634 30.1198L221.937 37.7725C221.898 37.8911 221.783 37.9701 221.66 37.9701H215.949C215.747 37.9701 215.607 37.7725 215.673 37.5836L217.913 30.9545C217.935 30.8886 217.935 30.8227 217.913 30.7568L211.794 14.0326C211.723 13.8393 211.864 13.6372 212.07 13.6372H217.193C217.316 13.6372 217.426 13.7119 217.469 13.8305L220.821 22.8933C220.918 23.1525 221.287 23.1481 221.375 22.8845L224.463 13.8349C224.503 13.7163 224.617 13.6372 224.74 13.6372H230.152C230.354 13.6372 230.499 13.8393 230.429 14.0326L230.424 14.0282Z" fill="#E52322"/>
<path d="M249.955 22.9767C249.955 28.2878 245.575 32.6106 240.19 32.6106C234.804 32.6106 230.424 28.2878 230.424 22.9767C230.424 17.6655 234.804 13.3428 240.19 13.3428C245.575 13.3428 249.955 17.6655 249.955 22.9767ZM244.446 22.9767C244.446 20.6615 242.535 18.7769 240.19 18.7769C237.844 18.7769 235.933 20.6615 235.933 22.9767C235.933 25.2918 237.844 27.1764 240.19 27.1764C242.535 27.1764 244.446 25.2918 244.446 22.9767Z" fill="#E52322"/>
<path d="M108.247 46.0579V63.8672C108.247 64.0298 108.115 64.1615 107.953 64.1615H102.813C102.65 64.1615 102.518 64.0298 102.518 63.8672V63.5948C102.518 63.4806 102.395 63.4147 102.299 63.4674C100.827 64.3021 99.1621 64.737 97.4532 64.737C92.0673 64.737 87.6875 60.4143 87.6875 55.1031C87.6875 49.792 92.0673 45.4692 97.4532 45.4692C99.1621 45.4692 100.827 45.9085 102.299 46.7388C102.395 46.7959 102.518 46.7256 102.518 46.6114V46.0491C102.518 45.8866 102.65 45.7548 102.813 45.7548H107.953C108.115 45.7548 108.247 45.8866 108.247 46.0491V46.0579ZM102.518 55.1075C102.518 52.6694 100.805 50.6881 98.3318 50.6881C95.8585 50.6881 93.8509 52.6694 93.8509 55.1075C93.8509 57.5457 95.8585 59.5269 98.3318 59.5269C100.805 59.5269 102.518 57.5457 102.518 55.1075Z" fill="#254A96"/>
<path d="M117.464 40.2721V63.8714C117.464 64.034 117.332 64.1658 117.17 64.1658H111.736C111.573 64.1658 111.441 64.034 111.441 63.8714V40.2721C111.441 40.1096 111.573 39.9778 111.736 39.9778H117.17C117.332 39.9778 117.464 40.1096 117.464 40.2721Z" fill="#254A96"/>
<path d="M148.327 59.9045C145.968 63.0104 142.326 64.8467 138.469 64.8467C131.585 64.8467 125.984 59.1138 125.984 52.0674C125.984 45.021 131.585 39.2881 138.469 39.2881C140.495 39.2881 142.427 39.7713 144.215 40.7202C145.744 41.5329 147.115 42.6839 148.2 44.0633C148.301 44.1951 148.275 44.3884 148.138 44.485L144.005 47.5074C143.877 47.5997 143.701 47.5821 143.596 47.4635C142.3 45.9479 140.459 45.0869 138.469 45.0869C134.705 45.0869 131.638 48.2191 131.638 52.0674C131.638 55.9157 134.7 59.0479 138.469 59.0479C140.512 59.0479 142.441 58.1078 143.737 56.5087C143.833 56.3857 144.013 56.3681 144.136 56.4604L148.261 59.4784C148.398 59.5794 148.428 59.7727 148.327 59.9089V59.9045Z" fill="#254A96"/>
<path d="M168.633 55.1117C168.633 60.4228 164.253 64.7456 158.867 64.7456C153.481 64.7456 149.102 60.4228 149.102 55.1117C149.102 49.8005 153.481 45.4778 158.867 45.4778C164.253 45.4778 168.633 49.8005 168.633 55.1117ZM163.124 55.1117C163.124 52.7966 161.213 50.912 158.867 50.912C156.521 50.912 154.61 52.7966 154.61 55.1117C154.61 57.4268 156.521 59.3114 158.867 59.3114C161.213 59.3114 163.124 57.4268 163.124 55.1117Z" fill="#254A96"/>
<path d="M184.542 58.6834C184.498 59.3292 184.331 60.0101 184.05 60.7218C182.947 63.0633 180.408 64.4602 177.245 64.4602C176.81 64.4602 176.358 64.4339 175.909 64.3812C174.486 64.2142 173.243 63.8364 172.211 63.2565C171.147 62.5361 170.339 61.5345 169.794 60.2693C169.72 60.098 169.821 59.9003 170.001 59.8651L175.04 58.7801C175.158 58.7537 175.277 58.8064 175.343 58.9031C175.694 59.4302 176.296 59.685 176.621 59.7246C177.39 59.8168 177.794 59.6103 177.992 59.4214C178.194 59.2281 178.286 58.969 178.251 58.6834C178.172 58.0464 177.79 57.7477 175.839 56.8208L175.813 56.8076C175.426 56.6231 174.943 56.3946 174.403 56.1267C174.029 55.9641 173.669 55.7928 173.331 55.6083L173.304 55.5907C173.256 55.5644 173.208 55.5336 173.159 55.5029C171.411 54.5013 170.392 53.28 170.128 51.8742C169.755 49.8666 171.046 48.1621 171.306 47.8414C171.697 47.4021 172.149 47.0156 172.659 46.6905C174.187 45.7152 176.16 45.3111 178.211 45.5527C179.441 45.6976 180.557 46.0271 181.528 46.5367C181.989 46.7783 182.42 47.0639 182.802 47.389C183.066 47.6218 183.892 48.4389 184.142 49.6865C184.173 49.8447 184.067 49.9984 183.909 50.0292L178.949 51.0308C178.809 51.0571 178.673 50.9781 178.62 50.8463C178.479 50.4992 178.176 50.1522 177.522 50.0775C177.087 50.0248 176.696 50.1566 176.441 50.4333C176.252 50.6442 176.173 50.9078 176.235 51.1186C176.331 51.4481 176.669 51.9709 178.519 52.7265C178.888 52.8714 179.222 52.9988 179.564 53.1394C179.995 53.2932 180.412 53.4601 180.803 53.6314C181.981 54.185 184.704 55.7752 184.542 58.679V58.6834Z" fill="#254A96"/>
<path d="M196.734 59.7242L196.075 64.0733C196.053 64.2095 195.939 64.3149 195.803 64.3237C195.174 64.3588 193.488 64.4555 192.974 64.4555C192.934 64.4555 192.899 64.4555 192.872 64.4555C189.749 64.293 188.097 62.6895 188.097 59.8209V50.9909C188.097 50.8283 187.965 50.6966 187.803 50.6966H185.892C185.729 50.6966 185.598 50.5648 185.598 50.4022V46.0487C185.598 45.8862 185.729 45.7544 185.892 45.7544H187.803C187.965 45.7544 188.097 45.6226 188.097 45.4601V40.4125C188.097 40.25 188.229 40.1182 188.392 40.1182H193.531C193.694 40.1182 193.826 40.25 193.826 40.4125V45.4601C193.826 45.6226 193.958 45.7544 194.12 45.7544H196.031C196.194 45.7544 196.325 45.8862 196.325 46.0487V50.4022C196.325 50.5648 196.194 50.6966 196.031 50.6966H194.12C193.958 50.6966 193.826 50.8283 193.826 50.9909C193.826 52.5197 193.826 57.0313 193.826 57.0752V57.2026C193.804 57.7605 193.777 58.5293 194.226 58.9862C194.489 59.2542 194.898 59.3903 195.442 59.3903H196.444C196.624 59.3903 196.76 59.5529 196.734 59.7286V59.7242Z" fill="#254A96"/>
<path d="M217.484 55.1117C217.484 60.4228 213.105 64.7456 207.719 64.7456C202.333 64.7456 197.953 60.4228 197.953 55.1117C197.953 49.8005 202.333 45.4778 207.719 45.4778C213.105 45.4778 217.484 49.8005 217.484 55.1117ZM211.976 55.1117C211.976 52.7966 210.065 50.912 207.719 50.912C205.373 50.912 203.462 52.7966 203.462 55.1117C203.462 57.4268 205.373 59.3114 207.719 59.3114C210.065 59.3114 211.976 57.4268 211.976 55.1117Z" fill="#254A96"/>
<path d="M71.5872 0.229736H0.046875V71.7701H71.5872V0.229736Z" fill="#254A96"/>
<path d="M64.0728 24.6816V61.6752C64.0728 63.0985 62.9351 64.2583 61.5337 64.2583H10.0958C8.69004 64.2583 7.55664 63.1029 7.55664 61.6752V24.6816L21.3288 15.9087L32.9 8.65582C34.5605 7.61467 36.6648 7.61028 38.3298 8.63825L50.0811 15.8955L64.0728 24.6772V24.6816Z" fill="white"/>
<path d="M64.0728 24.5363V35.062L35.6061 17.4812L7.55664 35.062V24.5363L21.3288 15.9041L32.9 8.65118C34.5605 7.61003 36.6648 7.60564 38.3298 8.63361L50.0811 15.8909L64.0728 24.5319V24.5363Z" fill="#E52322"/>
<path d="M51.6293 39.7273C50.9747 39.2748 50.0653 39.556 49.793 40.2984C47.7063 45.9962 42.2326 50.0641 35.81 50.0641C29.3874 50.0641 23.9137 45.9962 21.827 40.2984C21.5546 39.5516 20.6453 39.2748 19.9907 39.7273L14.8114 43.0089C13.678 43.8172 14.1436 45.1571 14.3808 45.6887C18.0534 53.8641 26.264 59.2323 35.81 59.2323C45.356 59.2323 53.5666 53.8685 57.2392 45.6887C57.4764 45.1615 57.9772 43.8304 56.8086 42.9167L51.6293 39.7273Z" fill="#254A96"/>
</svg>
