<svg xmlns="http://www.w3.org/2000/svg" xmlns:xlink="http://www.w3.org/1999/xlink" width="644.57" height="255.54" viewBox="0 0 644.57 255.54"><defs><clipPath id="f091643a-5eb4-4844-8916-39e23e7a5fed"><path d="M91.62,148.37,60.24,183.22v58.06H0V4.63H60.24V107.11L150.86,4.63h69.67l-88,98,93.59,138.62h-72Z" fill="none"/></clipPath><clipPath id="ad80d6c0-5ffa-43aa-b672-748fc28f326d"><path d="M303.62,8.67q8.63,8.65,8.65,22.18t-8.65,22.29q-8.64,8.74-22.23,8.75c-9,0-16.4-2.92-22.1-8.75s-8.56-13.26-8.56-22.29,2.83-16.41,8.56-22.18S272.41,0,281.39,0,297.86,2.88,303.62,8.67ZM252.06,241.28V81h58.21V241.28Z" fill="none"/></clipPath></defs><g style="isolation:isolate"><g id="befc5c0f-4cae-47f3-b2de-a800081497b5" data-name="Layer 1"><path d="M376,122c-6.59,0-10.93,2.64-10.93,7,0,13.32,28.86,6.39,28.8,25,0,8.5-7.56,14-18.54,14a29.3,29.3,0,0,1-19.65-7.83l2.64-5.07a25.79,25.79,0,0,0,17.09,7.19c7.39,0,12-3,12-8,.06-13.72-28.81-6.44-28.81-24.86,0-8,7.1-13.19,17.74-13.19A30.1,30.1,0,0,1,392.61,121l-2.49,5.19A27.14,27.14,0,0,0,376,122Z" fill="#231f20"/><path d="M429.05,167.8v-6C426,166,421,168,414.88,168c-8,0-13.1-5-13.1-11.63s5.33-11,14.42-11.09h12.71v-2.39c0-5.67-3.52-9.09-10.37-9.09-4.25,0-8.2,1.61-12.22,4.45l-2.43-4c5-3.32,9.17-5.22,15.76-5.22,9.55,0,14.82,5.07,14.87,13.28l.1,25.5ZM429,154.51v-4.68h-12c-6.45,0-9.82,2-9.82,6.29s3.46,7.14,8.88,7.14C422.51,163.26,427.49,160,429,154.51Z" fill="#231f20"/><path d="M453.42,113.43V167.8h-5.71V113.43Z" fill="#231f20"/><path d="M501.2,129.26V167.8h-5.71v-8.75c-2.55,6-7.68,8.89-14.64,8.95-9,0-14.45-5.71-14.45-15V129.26h5.72v22.27c0,6.89,4,11,10.71,11,8-.14,12.66-6,12.66-14.36v-18.9Z" fill="#231f20"/><path d="M550.61,113.43V167.8H544.9v-8.29c-2.88,5.42-8.15,8.58-15,8.58-11,0-18.6-8.16-18.6-19.64S518.86,129,529.76,129c6.89,0,12.26,3.13,15.14,8.65V113.43ZM544.9,148.6c0-8.51-5.82-14.66-14-14.66s-14,6.15-14,14.66,5.78,14.57,14,14.57S544.9,157.1,544.9,148.6Z" fill="#231f20"/><path d="M622,168.68l-8.59-8.51c-4.69,5.05-10.13,7.83-15.89,7.83-8.5,0-15.24-5.92-15.24-14,0-7.42,5.62-11.28,11.63-14.51-3.52-4.64-5.28-8.5-5.28-12.25,0-6.35,5.08-11,12.57-11,7.08,0,11.86,4.25,11.86,10.26,0,7-6.3,10.55-12.76,14,3.15,3.67,7.34,7.91,12.62,13a51.74,51.74,0,0,0,5.18-10l3.9,2.93a55.24,55.24,0,0,1-5.81,10.3L625,165.6ZM610.16,157c-5.73-5.73-10.33-10.42-13.79-14.43-5,2.79-9.28,5.91-9.28,11,0,5.81,4.69,9.92,10.6,9.92C602.08,163.55,606.44,161.21,610.16,157Zm-12.38-19.56c5.64-2.93,10.57-5.71,10.57-10.94,0-3.81-2.8-6.45-7.18-6.45-4.8,0-7.88,3.18-7.88,7.19C593.29,130.28,594.85,133.5,597.78,137.46Z" fill="#231f20"/><path d="M408.25,215.68c0,14.56-11.54,25.64-26.63,25.64H361.1V190h20.76C396.8,190,408.25,201.08,408.25,215.68Zm-5.95,0c0-11.58-9.1-20.27-20.59-20.27H367V235.9h14.94C393.34,235.9,402.3,227.26,402.3,215.73Z" fill="#231f20"/><path d="M451.37,224.17H419.86c1,7.63,6.46,12.61,14,12.61a16,16,0,0,0,11.91-4.93l3.17,3.32c-3.66,4-9.08,6.35-15.52,6.35-11.39,0-19.22-8-19.22-19.49s7.91-19.39,19.12-19.48C445.8,202.55,452,211.14,451.37,224.17Zm-5.13-4.53c-.34-7.48-5.32-12.31-12.89-12.31-7.4,0-12.67,4.83-13.49,12.31Z" fill="#231f20"/><path d="M500.7,222.13c0,11.43-7.47,19.39-18.39,19.39-6.92,0-12.19-3.12-15-8.49v22.51h-5.71V202.78h5.71v8.27c2.84-5.34,8.11-8.5,14.88-8.5C493.08,202.55,500.7,210.6,500.7,222.13Zm-5.79-.15c0-8.35-5.71-14.51-13.77-14.51s-13.86,6.06-13.86,14.51,5.72,14.51,13.86,14.51S494.91,230.39,494.91,222Z" fill="#231f20"/><path d="M546,222c0,11.58-8.11,19.54-19.59,19.54s-19.54-8-19.54-19.54c0-11.42,8.12-19.43,19.54-19.43S546,210.56,546,222Zm-33.42.05c0,8.65,5.79,14.51,13.83,14.51s13.86-5.86,13.86-14.51c0-8.5-5.75-14.41-13.86-14.41S512.56,213.53,512.56,222Z" fill="#231f20"/><path d="M575.57,202.55v5.57c-8.11-.15-13.18,4.92-13.82,12.69v20.51H556V202.78h5.71v8.56C564.29,205.71,569.07,202.64,575.57,202.55Z" fill="#231f20"/><path d="M603.22,238.69a15.83,15.83,0,0,1-8.76,2.83c-5.61.1-9.81-3.27-9.81-10.89V208.41h-5.57V204h5.57V193.85h5.66V204h12.23v4.45H590.31v21.25c0,4.68,1.81,6.59,5.13,6.59a13.32,13.32,0,0,0,6.15-2Z" fill="#231f20"/><path d="M644.53,224.17H613c.94,7.63,6.45,12.61,14,12.61a16.12,16.12,0,0,0,12-4.93l3.13,3.32c-3.66,4-9.08,6.35-15.53,6.35-11.33,0-19.2-8-19.2-19.49s7.92-19.39,19.15-19.48C639,202.55,645.13,211.14,644.53,224.17Zm-5.13-4.53c-.39-7.48-5.37-12.31-12.89-12.31s-12.69,4.83-13.48,12.31Z" fill="#231f20"/><polygon points="91.62 148.37 60.24 183.22 60.24 241.28 0 241.28 0 4.63 60.24 4.63 60.24 107.11 150.86 4.63 220.53 4.63 132.55 102.66 226.14 241.28 154.18 241.28 91.62 148.37" fill="#fff"/><g clip-path="url(#f091643a-5eb4-4844-8916-39e23e7a5fed)"><g style="mix-blend-mode:multiply"><path d="M115.7,78c33,80.62,2,165.49,82.62,132.48A157.79,157.79,0,0,0,284.58,4.77c-33-80.62-215.15-209.36-295.77-176.35S82.73-2.61,115.7,78Z" fill="#feda00"/></g><g style="mix-blend-mode:multiply"><path d="M145.55,76.38C203.4,11.21,202.26-79.09,267.41-21.26s71.06,157.56,13.2,222.68S8.24,327.67-56.9,269.82,87.69,141.49,145.55,76.38Z" fill="#feda00"/></g><g style="mix-blend-mode:multiply"><path d="M-107.63,31.86c-282.94-139.06-433.5-353.15-14-401.88,0,0,224.55,171.79,317.46,261.74C282.66-24.24,341.12,25.32,319,102.5,206.5,213,52.62,110.6-107.63,31.86Z" fill="#feda00"/></g><g style="mix-blend-mode:multiply"><path d="M-832,378.08c41.32,9,350.57-132.31,475-219.33S-107.63,31.86-107.63,31.86-423.89-70.24-438.81-176.87c-15.8-112.7,53.08-200.37,317.18-193.15,0,0,224.55,171.79,317.46,261.74C282.66-24.24,341.12,25.32,319,102.5,289.84,203.85,148.57,245.77-5.29,294.1c-158.83,49.84-754.8,231-784.65,238.56C-1066.3,562.43-832,378.08-832,378.08Z" fill="#feda00"/></g></g><path d="M303.62,8.67q8.63,8.65,8.65,22.18t-8.65,22.29q-8.64,8.74-22.23,8.75c-9,0-16.4-2.92-22.1-8.75s-8.56-13.26-8.56-22.29,2.83-16.41,8.56-22.18S272.41,0,281.39,0,297.86,2.88,303.62,8.67ZM252.06,241.28V81h58.21V241.28Z" fill="#fff"/><g clip-path="url(#ad80d6c0-5ffa-43aa-b672-748fc28f326d)"><g style="mix-blend-mode:multiply"><path d="M355.33,195.2c33,80.6,2,165.43,82.62,132.45a157.73,157.73,0,0,0,86.26-205.71c-33-80.65-215.15-209.36-295.75-176.38S322.36,114.54,355.33,195.2Z" fill="#feda00"/></g><g style="mix-blend-mode:multiply"><path d="M385.18,193.51C443,128.35,441.89,38.05,507,95.9a157.72,157.72,0,0,1,13.24,222.67C462.41,383.73,247.87,444.83,182.74,387S327.34,258.65,385.18,193.51Z" fill="#feda00"/></g><g style="mix-blend-mode:multiply"><path d="M132,149C-150.94,9.94-301.5-204.12,118-252.88c0,0,224.52,171.81,317.41,261.75,86.85,84,145.31,133.61,123.11,210.79C446.14,330.14,292.23,227.76,132,149Z" fill="#feda00"/></g><g style="mix-blend-mode:multiply"><path d="M-592.42,495.23c41.33,9,350.59-132.3,475-219.32S132,149,132,149-184.24,46.91-199.18-59.74C-214.95-172.45-146.1-260.08,118-252.88c0,0,224.52,171.81,317.41,261.75,86.85,84,145.31,133.61,123.11,210.79C529.47,321,388.21,362.93,234.34,411.26c-158.83,49.84-754.81,231-784.65,238.52C-826.69,679.57-592.42,495.23-592.42,495.23Z" fill="#feda00"/></g></g></g></g></svg>